<mxfile host="app.diagrams.net" modified="2023-10-17T08:02:26.596Z" agent="Mozilla/5.0 (Windows NT 10.0; Win64; x64) AppleWebKit/537.36 (KHTML, like Gecko) Chrome/117.0.0.0 Safari/537.36 Edg/117.0.2045.60" version="22.0.4" etag="wFOGB1RW9XYF6kjrzWks" type="github">
  <diagram name="第 1 页" id="Cg4GwRjvwl5P3XF2B2LI">
    <mxGraphModel>
      <root>
        <mxCell id="0" />
        <mxCell id="1" parent="0" />
      </root>
    </mxGraphModel>
  </diagram>
</mxfile>
